<svg width="726" height="267" viewBox="0 0 726 267" fill="none" xmlns="http://www.w3.org/2000/svg">
<path d="M0.500001 220H-0.499999V221H0.500001V220ZM0.500001 166L-0.343875 165.463L-0.499999 165.709V166H0.500001ZM103.5 3.99999V2.99999H102.951L102.656 3.46345L103.5 3.99999ZM152.5 3.99999H153.5V2.99999H152.5V3.99999ZM152.5 76V77H153.5V76H152.5ZM124.5 76V75H123.948L123.654 75.4665L124.5 76ZM69 164L68.1542 163.467L68 163.711V164H69ZM69 166H68V167H69V166ZM221 166H222V165H221V166ZM221 220V221H222V220H221ZM125 260H124V261H125V260ZM125 203.5L124.002 203.436L124 203.468V203.5H125ZM126.5 180L127.498 180.064L127.5 180.032V180H126.5ZM126.5 3.99999V2.99999H125.5V3.99999H126.5ZM191.5 3.99999H192.5V2.99999H191.5V3.99999ZM191.5 260V261H192.5V260H191.5ZM1.5 220V166H-0.499999V220H1.5ZM1.34388 166.537L104.344 4.53653L102.656 3.46345L-0.343875 165.463L1.34388 166.537ZM103.5 4.99999H152.5V2.99999H103.5V4.99999ZM151.5 3.99999V76H153.5V3.99999H151.5ZM152.5 75H124.5V77H152.5V75ZM123.654 75.4665L68.1542 163.467L69.8458 164.533L125.346 76.5334L123.654 75.4665ZM68 164V166H70V164H68ZM69 167H221V165H69V167ZM220 166V220H222V166H220ZM221 219H0.500001V221H221V219ZM126 260V203.5H124V260H126ZM125.998 203.564L127.498 180.064L125.502 179.936L124.002 203.436L125.998 203.564ZM127.5 180V3.99999H125.5V180H127.5ZM126.5 4.99999H191.5V2.99999H126.5V4.99999ZM190.5 3.99999V260H192.5V3.99999H190.5ZM191.5 259H125V261H191.5V259ZM361.656 267L361.653 268H361.656V267ZM301.406 250.875L300.873 251.721L300.873 251.721L301.406 250.875ZM262.281 204.75L261.372 205.165L261.372 205.165L262.281 204.75ZM248.656 132.5L249.656 132.503L249.656 132.503L248.656 132.5ZM262.406 60.75L261.5 60.3275L261.498 60.3307L262.406 60.75ZM301.406 15.875L300.888 15.0197L300.886 15.0209L301.406 15.875ZM421.906 16L421.385 16.8534L421.388 16.8553L421.906 16ZM461.031 60.875L461.938 60.4525L461.938 60.4525L461.031 60.875ZM474.656 132.5L473.656 132.497V132.5H474.656ZM460.906 205L461.816 205.415L461.816 205.415L460.906 205ZM421.781 251.125L422.314 251.972L422.315 251.971L421.781 251.125ZM391.156 191.75L390.305 191.226L390.304 191.227L391.156 191.75ZM402.656 132.5L401.656 132.5L401.656 132.503L402.656 132.5ZM397.406 89.375L398.36 89.0759L398.36 89.0759L397.406 89.375ZM382.906 64.625L382.246 65.3763L382.252 65.3814L382.906 64.625ZM332.281 74.75L331.433 74.221L331.433 74.221L332.281 74.75ZM320.656 132.5L319.656 132.494L319.656 132.495L320.656 132.5ZM325.781 176.75L324.824 177.039L324.825 177.041L325.781 176.75ZM340.281 202.25L339.616 202.996L339.621 203.001L340.281 202.25ZM361.66 266C338.566 265.917 318.673 260.58 301.94 250.029L300.873 251.721C317.973 262.503 338.246 267.916 361.653 268L361.66 266ZM301.94 250.029C285.205 239.477 272.286 224.26 263.191 204.335L261.372 205.165C270.61 225.407 283.775 240.94 300.873 251.721L301.94 250.029ZM263.191 204.335C254.098 184.413 249.573 160.48 249.656 132.503L247.656 132.497C247.573 160.687 252.131 184.92 261.372 205.165L263.191 204.335ZM249.656 132.503C249.739 104.439 254.306 80.6724 263.314 61.1693L261.498 60.3307C252.34 80.1609 247.74 104.228 247.656 132.497L249.656 132.503ZM263.313 61.1725C272.405 41.6658 285.278 26.8662 301.926 16.7291L300.886 15.0209C283.867 25.3838 270.741 40.5008 261.5 60.3275L263.313 61.1725ZM301.924 16.7303C318.659 6.59044 338.557 1.49999 361.656 1.49999V-0.50001C338.256 -0.50001 317.987 4.65955 300.888 15.0197L301.924 16.7303ZM361.656 1.49999C384.755 1.49999 404.651 6.63144 421.385 16.8534L422.428 15.1466C405.329 4.70188 385.058 -0.50001 361.656 -0.50001V1.49999ZM421.388 16.8553C438.119 26.9927 451.033 41.7922 460.125 61.2975L461.938 60.4525C452.696 40.6245 439.527 25.5073 422.424 15.1447L421.388 16.8553ZM460.125 61.2975C469.214 80.7978 473.739 104.519 473.656 132.497L475.656 132.503C475.74 104.314 471.182 80.2856 461.938 60.4525L460.125 61.2975ZM473.656 132.5C473.656 160.645 469.09 184.663 459.997 204.585L461.816 205.415C471.056 185.17 475.656 160.855 475.656 132.5H473.656ZM459.997 204.585C450.902 224.51 437.983 239.727 421.248 250.279L422.315 251.971C439.413 241.19 452.577 225.657 461.816 205.415L459.997 204.585ZM421.249 250.278C404.6 260.746 384.75 266 361.656 266V268C385.062 268 405.295 262.671 422.314 251.972L421.249 250.278ZM361.656 211.5C374.085 211.5 384.207 204.993 392.009 192.273L390.304 191.227C382.772 203.507 373.227 209.5 361.656 209.5V211.5ZM392.008 192.274C399.907 179.449 403.74 159.469 403.656 132.497L401.656 132.503C401.739 159.365 397.906 178.884 390.305 191.226L392.008 192.274ZM403.656 132.5C403.656 114.861 401.902 100.375 398.36 89.0759L396.452 89.6741C399.911 100.708 401.656 114.973 401.656 132.5H403.656ZM398.36 89.0759C394.828 77.805 389.916 69.3655 383.56 63.8686L382.252 65.3814C388.23 70.5512 392.985 78.6116 396.452 89.6741L398.36 89.0759ZM383.566 63.8737C377.222 58.3013 369.906 55.5 361.656 55.5V57.5C369.407 57.5 376.257 60.1154 382.246 65.3763L383.566 63.8737ZM361.656 55.5C349.239 55.5 339.157 61.8279 331.433 74.221L333.13 75.2789C340.572 63.3388 350.073 57.5 361.656 57.5V55.5ZM331.433 74.221C323.7 86.6279 319.823 106.108 319.656 132.494L321.656 132.506C321.823 106.226 325.696 87.2054 333.13 75.2789L331.433 74.221ZM319.656 132.495C319.573 150.469 321.285 165.327 324.824 177.039L326.739 176.461C323.278 165.007 321.573 150.365 321.656 132.505L319.656 132.495ZM324.825 177.041C328.355 188.642 333.263 197.331 339.616 202.996L340.947 201.504C334.966 196.169 330.207 187.858 326.738 176.459L324.825 177.041ZM339.621 203.001C346.045 208.654 353.402 211.5 361.656 211.5V209.5C353.91 209.5 347.017 206.846 340.942 201.499L339.621 203.001ZM504.781 220H503.781V221H504.781V220ZM504.781 166L503.937 165.463L503.781 165.709V166H504.781ZM607.781 3.99999V2.99999H607.232L606.937 3.46345L607.781 3.99999ZM656.781 3.99999H657.781V2.99999H656.781V3.99999ZM656.781 76V77H657.781V76H656.781ZM628.781 76V75H628.23L627.935 75.4665L628.781 76ZM573.281 164L572.435 163.467L572.281 163.711V164H573.281ZM573.281 166H572.281V167H573.281V166ZM725.281 166H726.281V165H725.281V166ZM725.281 220V221H726.281V220H725.281ZM629.281 260H628.281V261H629.281V260ZM629.281 203.5L628.283 203.436L628.281 203.468V203.5H629.281ZM630.781 180L631.779 180.064L631.781 180.032V180H630.781ZM630.781 3.99999V2.99999H629.781V3.99999H630.781ZM695.781 3.99999H696.781V2.99999H695.781V3.99999ZM695.781 260V261H696.781V260H695.781ZM505.781 220V166H503.781V220H505.781ZM505.625 166.537L608.625 4.53653L606.937 3.46345L503.937 165.463L505.625 166.537ZM607.781 4.99999H656.781V2.99999H607.781V4.99999ZM655.781 3.99999V76H657.781V3.99999H655.781ZM656.781 75H628.781V77H656.781V75ZM627.935 75.4665L572.435 163.467L574.127 164.533L629.627 76.5334L627.935 75.4665ZM572.281 164V166H574.281V164H572.281ZM573.281 167H725.281V165H573.281V167ZM724.281 166V220H726.281V166H724.281ZM725.281 219H504.781V221H725.281V219ZM630.281 260V203.5H628.281V260H630.281ZM630.279 203.564L631.779 180.064L629.783 179.936L628.283 203.436L630.279 203.564ZM631.781 180V3.99999H629.781V180H631.781ZM630.781 4.99999H695.781V2.99999H630.781V4.99999ZM694.781 3.99999V260H696.781V3.99999H694.781ZM695.781 259H629.281V261H695.781V259Z" fill="#0192EB"/>
</svg>
