<?xml version="1.0" encoding="UTF-8"?>
<!DOCTYPE svg PUBLIC "-//W3C//DTD SVG 1.1//EN" "http://www.w3.org/Graphics/SVG/1.1/DTD/svg11.dtd">
<!-- Creator: CorelDRAW 2020 (64-Bit) -->
<svg xmlns="http://www.w3.org/2000/svg" xml:space="preserve" width="8.5in" height="11in" version="1.1" style="shape-rendering:geometricPrecision; text-rendering:geometricPrecision; image-rendering:optimizeQuality; fill-rule:evenodd; clip-rule:evenodd"
viewBox="0 0 8500 11000"
 xmlns:xlink="http://www.w3.org/1999/xlink"
 xmlns:xodm="http://www.corel.com/coreldraw/odm/2003">
 <defs>
  <style type="text/css">
   <![CDATA[
    .fil0 {fill:none}
    .fil2 {fill:#DA3438}
    .fil1 {fill:#003E93}
    .fil4 {fill:#0192EB}
    .fil3 {fill:#7EC90D}
   ]]>
  </style>
 </defs>
 <g id="Layer_x0020_1">
  <metadata id="CorelCorpID_0Corel-Layer"/>
  <g id="_2787172487712">
   <rect class="fil0" x="2969.24" y="4219.24" width="2561.51" height="2561.51"/>
   <path class="fil1" d="M4683.27 6611.24l-425.28 0c-500.89,0 -927.04,-335.91 -1064.56,-793.57 302,152.38 605.89,382.46 893.85,438.13 155.05,29.98 311.16,-1.82 427.49,-67.15l168.49 0 0 422.59z"/>
   <path class="fil2" d="M5369.24 5832.42l0 492.89c0,157.25 -128.68,285.93 -285.93,285.93l-296.26 0 0 -423.47c89.28,-8.9 159.61,-84.79 159.61,-176.31l0 -13.47c140.01,-16.07 280.35,-68.2 422.59,-165.57z"/>
   <path class="fil1" d="M4257.99 4388.76l0 0c532.78,0 980.99,380.02 1087.25,882.37 -320.14,-150.61 -643.66,-406.07 -949.23,-465.15 -165.66,-32.03 -332.54,6.45 -450.8,81.01 -81.12,41.7 -153.03,99.04 -211.66,167.97 -126.48,-23.09 -261.63,-22.57 -404.08,16.31 -36.78,10.04 -74.39,23.68 -112.12,40.05 158.45,-420.98 566.02,-722.56 1040.64,-722.56z"/>
   <path class="fil3" d="M3023.21 5505.1c125.13,-29.75 145.57,-64.06 338.9,-85.08 248.48,-27.02 461.05,47.31 669.07,162.93 45.39,25.22 92.34,49.58 133.71,76.93 38.44,25.41 86.57,56 131.54,78.95 328.61,167.74 645.04,206.06 972.75,-21.62 22.68,-15.76 39.97,-27.05 60.75,-44.63 13.58,-11.5 18.69,-14.89 29.08,-23.69 26.89,-22.76 124.58,-113.19 135.18,-134.4 -118.31,24.61 -148.02,59.78 -340.84,77.15 -299.39,26.98 -583.69,-59.69 -828.83,-217.89 -42.27,-27.28 -82.17,-55.53 -128.13,-82.54 -183.67,-107.93 -410.94,-197.01 -668.5,-126.7 -138.74,37.87 -292.8,140.78 -397.83,234.4l-54.72 50.4c-19.28,16.83 -41.57,32.33 -52.12,55.8z"/>
   <path class="fil4" d="M3980.49 5018.15c2.33,2.31 2.32,2.94 8.88,6.66l172.44 74.96c168.91,82.63 346.94,203.02 518.67,276.19 323.1,137.65 532.69,134.58 844.74,-12.93 -103.96,-9.2 -101.09,9.83 -236.07,-27.46 -301.51,-83.3 -612.57,-368.09 -902.72,-424.2 -157.85,-30.52 -317.13,21.64 -405.94,106.79z"/>
   <path class="fil4" d="M2974.78 5685.02c362.48,17.04 470.6,111.29 768.93,290.59 104.54,62.83 226.38,135.3 365.35,161.24 120.6,22.51 227.26,2.1 334.51,-46.48l64.57 -34.91c9.64,-5.84 0.93,1.07 10.11,-6.55 14.39,-11.93 3.88,-1.17 13.07,-14.1 -336.88,-69.58 -696.45,-457.49 -1129.33,-455.76 -112.25,0.45 -354.36,50.59 -427.21,105.97z"/>
  </g>
 </g>
</svg>
