<svg width="165" height="38" viewBox="0 0 165 38" fill="none" xmlns="http://www.w3.org/2000/svg">
<path d="M0.57848 37H-0.42152V38H0.57848V37ZM0.57848 0.636363V-0.363637H-0.42152V0.636363H0.57848ZM25.0813 0.636363H26.0813V-0.363637H25.0813V0.636363ZM25.0813 6.97514V7.97514H26.0813V6.97514H25.0813ZM8.26669 6.97514V5.97514H7.26669V6.97514H8.26669ZM8.26669 15.6399H7.26669V16.6399H8.26669V15.6399ZM23.8207 15.6399H24.8207V14.6399H23.8207V15.6399ZM23.8207 21.9787V22.9787H24.8207V21.9787H23.8207ZM8.26669 21.9787V20.9787H7.26669V21.9787H8.26669ZM8.26669 30.6612H7.26669V31.6612H8.26669V30.6612ZM25.1523 30.6612H26.1523V29.6612H25.1523V30.6612ZM25.1523 37V38H26.1523V37H25.1523ZM1.57848 37V0.636363H-0.42152V37H1.57848ZM0.57848 1.63636H25.0813V-0.363637H0.57848V1.63636ZM24.0813 0.636363V6.97514H26.0813V0.636363H24.0813ZM25.0813 5.97514H8.26669V7.97514H25.0813V5.97514ZM7.26669 6.97514V15.6399H9.26669V6.97514H7.26669ZM8.26669 16.6399H23.8207V14.6399H8.26669V16.6399ZM22.8207 15.6399V21.9787H24.8207V15.6399H22.8207ZM23.8207 20.9787H8.26669V22.9787H23.8207V20.9787ZM7.26669 21.9787V30.6612H9.26669V21.9787H7.26669ZM8.26669 31.6612H25.1523V29.6612H8.26669V31.6612ZM24.1523 30.6612V37H26.1523V30.6612H24.1523ZM25.1523 36H0.57848V38H25.1523V36ZM31.1937 37H30.1937V38H31.1937V37ZM31.1937 0.636363V-0.363637H30.1937V0.636363H31.1937ZM52.5716 2.11008L52.12 3.00235L52.1265 3.00559L52.5716 2.11008ZM57.0282 6.24716L56.1593 6.74207L56.1632 6.74888L57.0282 6.24716ZM57.0105 18.7472L57.8669 19.2634L57.8685 19.2608L57.0105 18.7472ZM52.4828 22.7244L52.0596 21.8184L52.0575 21.8194L52.4828 22.7244ZM35.7392 24.1094H34.7392V25.1094H35.7392V24.1094ZM35.7392 17.9304V16.9304H34.7392V17.9304H35.7392ZM47.7598 17.3267L48.1428 18.2504L48.1428 18.2504L47.7598 17.3267ZM49.926 15.5156L49.0695 14.9992L49.064 15.0086L49.926 15.5156ZM49.926 9.46094L49.0577 9.9571L49.0631 9.96634L49.926 9.46094ZM47.742 7.57883L47.3307 8.49034L47.3374 8.49335L47.3441 8.49626L47.742 7.57883ZM38.8819 6.92188V5.92188H37.8819V6.92188H38.8819ZM38.8819 37V38H39.8819V37H38.8819ZM50.8315 20.4517L51.7091 19.9724L51.4248 19.4517H50.8315V20.4517ZM59.8691 37V38H61.5547L60.7468 36.5207L59.8691 37ZM51.3819 37L50.4999 37.4713L50.7825 38H51.3819V37ZM42.5396 20.4517V19.4517H40.8715L41.6576 20.923L42.5396 20.4517ZM32.1937 37V0.636363H30.1937V37H32.1937ZM31.1937 1.63636H45.5403V-0.363637H31.1937V1.63636ZM45.5403 1.63636C48.1697 1.63636 50.3505 2.10681 52.12 3.00232L53.0231 1.21784C50.91 0.148395 48.4033 -0.363637 45.5403 -0.363637V1.63636ZM52.1265 3.00559C53.913 3.89341 55.2457 5.138 56.1593 6.74206L57.8972 5.75226C56.7748 3.78151 55.1364 2.26805 53.0166 1.21457L52.1265 3.00559ZM56.1632 6.74888C57.0906 8.34775 57.573 10.2578 57.573 12.5149H59.573C59.573 9.96611 59.0256 7.6977 57.8933 5.74544L56.1632 6.74888ZM57.573 12.5149C57.573 14.7835 57.0849 16.676 56.1525 18.2335L57.8685 19.2608C59.0194 17.3382 59.573 15.0759 59.573 12.5149H57.573ZM56.154 18.2309C55.2233 19.7752 53.8718 20.972 52.0596 21.8184L52.906 23.6305C55.0474 22.6303 56.7144 21.1756 57.8669 19.2634L56.154 18.2309ZM52.0575 21.8194C50.258 22.6649 48.0322 23.1094 45.345 23.1094V25.1094C48.2449 25.1094 50.7776 24.6305 52.908 23.6295L52.0575 21.8194ZM45.345 23.1094H35.7392V25.1094H45.345V23.1094ZM36.7392 24.1094V17.9304H34.7392V24.1094H36.7392ZM35.7392 18.9304H44.1021V16.9304H35.7392V18.9304ZM44.1021 18.9304C45.6528 18.9304 47.0128 18.719 48.1428 18.2504L47.3768 16.403C46.5655 16.7393 45.487 16.9304 44.1021 16.9304V18.9304ZM48.1428 18.2504C49.2877 17.7757 50.1906 17.038 50.7879 16.0226L49.064 15.0086C48.7143 15.6031 48.1731 16.0728 47.3768 16.403L48.1428 18.2504ZM50.7823 16.032C51.384 15.0341 51.6539 13.8436 51.6539 12.5149H49.6539C49.6539 13.5773 49.4386 14.3873 49.0696 14.9993L50.7823 16.032ZM51.6539 12.5149C51.6539 11.175 51.3843 9.97218 50.7888 8.95553L49.0631 9.96634C49.4383 10.6069 49.6539 11.44 49.6539 12.5149H51.6539ZM50.7942 8.9648C50.2006 7.92597 49.2952 7.16248 48.1399 6.66141L47.3441 8.49626C48.1538 8.84746 48.7044 9.3387 49.0577 9.95708L50.7942 8.9648ZM48.1533 6.66733C47.0134 6.15297 45.6363 5.92188 44.0666 5.92188V7.92188C45.4561 7.92188 46.5294 8.12875 47.3307 8.49034L48.1533 6.66733ZM44.0666 5.92188H38.8819V7.92188H44.0666V5.92188ZM37.8819 6.92188V37H39.8819V6.92188H37.8819ZM38.8819 36H31.1937V38H38.8819V36ZM49.9539 20.931L58.9915 37.4793L60.7468 36.5207L51.7091 19.9724L49.9539 20.931ZM59.8691 36H51.3819V38H59.8691V36ZM52.2639 36.5287L43.4216 19.9804L41.6576 20.923L50.4999 37.4713L52.2639 36.5287ZM42.5396 21.4517H50.8315V19.4517H42.5396V21.4517ZM64.0062 37H63.0062V38H64.0062V37ZM64.0062 0.636363V-0.363637H63.0062V0.636363H64.0062ZM85.3841 2.11008L84.9325 3.00235L84.939 3.00559L85.3841 2.11008ZM89.8407 6.24716L88.9718 6.74207L88.9757 6.74888L89.8407 6.24716ZM89.823 18.7472L90.6794 19.2634L90.681 19.2608L89.823 18.7472ZM85.2953 22.7244L84.8721 21.8184L84.87 21.8194L85.2953 22.7244ZM68.5517 24.1094H67.5517V25.1094H68.5517V24.1094ZM68.5517 17.9304V16.9304H67.5517V17.9304H68.5517ZM80.5723 17.3267L80.9553 18.2504L80.9553 18.2504L80.5723 17.3267ZM82.7385 15.5156L81.882 14.9992L81.8765 15.0086L82.7385 15.5156ZM82.7385 9.46094L81.8702 9.9571L81.8756 9.96634L82.7385 9.46094ZM80.5545 7.57883L80.1432 8.49034L80.1499 8.49335L80.1566 8.49626L80.5545 7.57883ZM71.6944 6.92188V5.92188H70.6944V6.92188H71.6944ZM71.6944 37V38H72.6944V37H71.6944ZM83.644 20.4517L84.5216 19.9724L84.2373 19.4517H83.644V20.4517ZM92.6816 37V38H94.3672L93.5593 36.5207L92.6816 37ZM84.1944 37L83.3124 37.4713L83.595 38H84.1944V37ZM75.3521 20.4517V19.4517H73.684L74.4701 20.923L75.3521 20.4517ZM65.0062 37V0.636363H63.0062V37H65.0062ZM64.0062 1.63636H78.3528V-0.363637H64.0062V1.63636ZM78.3528 1.63636C80.9822 1.63636 83.163 2.10681 84.9325 3.00232L85.8356 1.21784C83.7225 0.148395 81.2158 -0.363637 78.3528 -0.363637V1.63636ZM84.939 3.00559C86.7255 3.89341 88.0582 5.138 88.9718 6.74206L90.7097 5.75226C89.5873 3.78151 87.9489 2.26805 85.8291 1.21457L84.939 3.00559ZM88.9757 6.74888C89.9031 8.34775 90.3855 10.2578 90.3855 12.5149H92.3855C92.3855 9.96611 91.8381 7.6977 90.7058 5.74544L88.9757 6.74888ZM90.3855 12.5149C90.3855 14.7835 89.8974 16.676 88.965 18.2335L90.681 19.2608C91.8319 17.3382 92.3855 15.0759 92.3855 12.5149H90.3855ZM88.9665 18.2309C88.0358 19.7752 86.6843 20.972 84.8721 21.8184L85.7185 23.6305C87.8599 22.6303 89.5269 21.1756 90.6794 19.2634L88.9665 18.2309ZM84.87 21.8194C83.0705 22.6649 80.8447 23.1094 78.1575 23.1094V25.1094C81.0574 25.1094 83.5901 24.6305 85.7205 23.6295L84.87 21.8194ZM78.1575 23.1094H68.5517V25.1094H78.1575V23.1094ZM69.5517 24.1094V17.9304H67.5517V24.1094H69.5517ZM68.5517 18.9304H76.9146V16.9304H68.5517V18.9304ZM76.9146 18.9304C78.4653 18.9304 79.8253 18.719 80.9553 18.2504L80.1893 16.403C79.378 16.7393 78.2995 16.9304 76.9146 16.9304V18.9304ZM80.9553 18.2504C82.1002 17.7757 83.0031 17.038 83.6004 16.0226L81.8765 15.0086C81.5268 15.6031 80.9856 16.0728 80.1893 16.403L80.9553 18.2504ZM83.5948 16.032C84.1965 15.0341 84.4664 13.8436 84.4664 12.5149H82.4664C82.4664 13.5773 82.2511 14.3873 81.8821 14.9993L83.5948 16.032ZM84.4664 12.5149C84.4664 11.175 84.1968 9.97218 83.6013 8.95553L81.8756 9.96634C82.2508 10.6069 82.4664 11.44 82.4664 12.5149H84.4664ZM83.6067 8.9648C83.0131 7.92597 82.1077 7.16248 80.9524 6.66141L80.1566 8.49626C80.9663 8.84746 81.5169 9.3387 81.8702 9.95708L83.6067 8.9648ZM80.9658 6.66733C79.8259 6.15297 78.4488 5.92188 76.8791 5.92188V7.92188C78.2686 7.92188 79.3419 8.12875 80.1432 8.49034L80.9658 6.66733ZM76.8791 5.92188H71.6944V7.92188H76.8791V5.92188ZM70.6944 6.92188V37H72.6944V6.92188H70.6944ZM71.6944 36H64.0062V38H71.6944V36ZM82.7664 20.931L91.804 37.4793L93.5593 36.5207L84.5216 19.9724L82.7664 20.931ZM92.6816 36H84.1944V38H92.6816V36ZM85.0764 36.5287L76.2341 19.9804L74.4701 20.923L83.3124 37.4713L85.0764 36.5287ZM75.3521 21.4517H83.644V19.4517H75.3521V21.4517ZM127.98 28.9389L127.1 28.4635L127.099 28.4664L127.98 28.9389ZM121.872 35.3132L122.365 36.1832L122.366 36.1824L121.872 35.3132ZM104.507 35.2955L105.003 34.4272L105.003 34.4272L104.507 35.2955ZM98.4167 28.9212L97.5354 29.3937L97.5354 29.3937L98.4167 28.9212ZM98.4167 8.69744L99.298 9.16998L99.298 9.16998L98.4167 8.69744ZM104.507 2.34091L105 3.21088L105.003 3.20915L104.507 2.34091ZM121.872 2.34091L121.376 3.20917L121.381 3.21184L121.872 2.34091ZM127.98 8.69744L127.099 9.16998L127.1 9.17288L127.98 8.69744ZM121.286 12.3196L120.367 12.7143L120.369 12.7195L121.286 12.3196ZM118.072 8.30682L117.523 9.14215L117.523 9.14215L118.072 8.30682ZM108.342 8.30682L108.892 9.14215L108.892 9.14215L108.342 8.30682ZM105.111 12.3196L104.194 11.9197L104.192 11.9249L105.111 12.3196ZM105.111 25.3168L104.192 25.7114L104.194 25.7166L105.111 25.3168ZM108.342 29.3295L108.892 28.4942L108.892 28.4942L108.342 29.3295ZM118.072 29.3295L117.523 28.4942L117.523 28.4942L118.072 29.3295ZM121.286 25.3168L120.369 24.9169L120.367 24.9221L121.286 25.3168ZM129.235 18.8182C129.235 22.659 128.507 25.8603 127.1 28.4635L128.86 29.4144C130.46 26.4541 131.235 22.9082 131.235 18.8182H129.235ZM127.099 28.4664C125.69 31.093 123.784 33.0753 121.378 34.444L122.366 36.1824C125.121 34.6155 127.287 32.3482 128.861 29.4115L127.099 28.4664ZM121.379 34.4432C118.973 35.8067 116.258 36.4972 113.207 36.4972V38.4972C116.573 38.4972 119.633 37.7316 122.365 36.1832L121.379 34.4432ZM113.207 36.4972C110.133 36.4972 107.407 35.8008 105.003 34.4272L104.011 36.1637C106.744 37.7257 109.818 38.4972 113.207 38.4972V36.4972ZM105.003 34.4272C102.608 33.0588 100.707 31.0765 99.298 28.4486L97.5354 29.3937C99.1094 32.3293 101.268 34.5965 104.011 36.1637L105.003 34.4272ZM99.298 28.4486C97.9017 25.8444 97.1795 22.6478 97.1795 18.8182H95.1795C95.1795 22.8958 95.9488 26.4345 97.5354 29.3937L99.298 28.4486ZM97.1795 18.8182C97.1795 14.9762 97.902 11.7738 99.298 9.16998L97.5354 8.22491C95.9485 11.1845 95.1795 14.7293 95.1795 18.8182H97.1795ZM99.298 9.16998C100.707 6.54274 102.607 4.5672 105 3.21087L104.014 1.47094C101.269 3.02655 99.1097 5.28869 97.5354 8.22491L99.298 9.16998ZM105.003 3.20915C107.407 1.83553 110.133 1.1392 113.207 1.1392V-0.860797C109.818 -0.860797 106.744 -0.0893209 104.011 1.47267L105.003 3.20915ZM113.207 1.1392C116.256 1.1392 118.971 1.83489 121.376 3.20915L122.368 1.47267C119.636 -0.0886821 116.574 -0.860797 113.207 -0.860797V1.1392ZM121.381 3.21184C123.785 4.56849 125.691 6.54392 127.099 9.16998L128.861 8.22491C127.286 5.28751 125.12 3.02526 122.363 1.46997L121.381 3.21184ZM127.1 9.17288C128.507 11.776 129.235 14.9773 129.235 18.8182H131.235C131.235 14.7281 130.46 11.1823 128.86 8.222L127.1 9.17288ZM123.44 18.8182C123.44 16.1556 123.042 13.8443 122.203 11.9198L120.369 12.7195C121.069 14.3224 121.44 16.3435 121.44 18.8182H123.44ZM122.205 11.9249C121.383 10.0104 120.195 8.50672 118.622 7.47149L117.523 9.14215C118.719 9.92983 119.674 11.1013 120.367 12.7143L122.205 11.9249ZM118.622 7.47149C117.055 6.43992 115.237 5.93963 113.207 5.93963V7.93963C114.895 7.93963 116.32 8.35081 117.523 9.14215L118.622 7.47149ZM113.207 5.93963C111.178 5.93963 109.36 6.43992 107.792 7.47149L108.892 9.14215C110.094 8.35081 111.52 7.93963 113.207 7.93963V5.93963ZM107.792 7.47149C106.221 8.50574 105.028 10.0076 104.194 11.9198L106.027 12.7195C106.732 11.1042 107.694 9.93081 108.892 9.14215L107.792 7.47149ZM104.192 11.9249C103.366 13.8479 102.974 16.1572 102.974 18.8182H104.974C104.974 16.3418 105.34 14.3188 106.029 12.7143L104.192 11.9249ZM102.974 18.8182C102.974 21.4791 103.366 23.7885 104.192 25.7114L106.029 24.9221C105.34 23.3176 104.974 21.2945 104.974 18.8182H102.974ZM104.194 25.7166C105.028 27.6288 106.221 29.1306 107.792 30.1649L108.892 28.4942C107.694 27.7056 106.732 26.5322 106.027 24.9169L104.194 25.7166ZM107.792 30.1649C109.36 31.1964 111.178 31.6967 113.207 31.6967V29.6967C111.52 29.6967 110.094 29.2856 108.892 28.4942L107.792 30.1649ZM113.207 31.6967C115.237 31.6967 117.055 31.1964 118.622 30.1649L117.523 28.4942C116.32 29.2856 114.895 29.6967 113.207 29.6967V31.6967ZM118.622 30.1649C120.195 29.1296 121.383 27.6259 122.205 25.7114L120.367 24.9221C119.674 26.5351 118.719 27.7065 117.523 28.4942L118.622 30.1649ZM122.203 25.7166C123.042 23.7921 123.44 21.4808 123.44 18.8182H121.44C121.44 21.2929 121.069 23.314 120.369 24.9169L122.203 25.7166ZM135.93 37H134.93V38H135.93V37ZM135.93 0.636363V-0.363637H134.93V0.636363H135.93ZM157.308 2.11008L156.856 3.00235L156.863 3.00559L157.308 2.11008ZM161.765 6.24716L160.896 6.74207L160.9 6.74888L161.765 6.24716ZM161.747 18.7472L162.603 19.2634L162.605 19.2608L161.747 18.7472ZM157.219 22.7244L156.796 21.8184L156.794 21.8194L157.219 22.7244ZM140.475 24.1094H139.475V25.1094H140.475V24.1094ZM140.475 17.9304V16.9304H139.475V17.9304H140.475ZM152.496 17.3267L152.879 18.2504L152.879 18.2504L152.496 17.3267ZM154.662 15.5156L153.806 14.9992L153.8 15.0086L154.662 15.5156ZM154.662 9.46094L153.794 9.9571L153.799 9.96634L154.662 9.46094ZM152.478 7.57883L152.067 8.49034L152.074 8.49335L152.08 8.49626L152.478 7.57883ZM143.618 6.92188V5.92188H142.618V6.92188H143.618ZM143.618 37V38H144.618V37H143.618ZM155.568 20.4517L156.445 19.9724L156.161 19.4517H155.568V20.4517ZM164.605 37V38H166.291L165.483 36.5207L164.605 37ZM156.118 37L155.236 37.4713L155.519 38H156.118V37ZM147.276 20.4517V19.4517H145.608L146.394 20.923L147.276 20.4517ZM136.93 37V0.636363H134.93V37H136.93ZM135.93 1.63636H150.277V-0.363637H135.93V1.63636ZM150.277 1.63636C152.906 1.63636 155.087 2.10681 156.856 3.00232L157.759 1.21784C155.646 0.148395 153.14 -0.363637 150.277 -0.363637V1.63636ZM156.863 3.00559C158.649 3.89341 159.982 5.138 160.896 6.74206L162.634 5.75226C161.511 3.78151 159.873 2.26805 157.753 1.21457L156.863 3.00559ZM160.9 6.74888C161.827 8.34775 162.309 10.2578 162.309 12.5149H164.309C164.309 9.96611 163.762 7.6977 162.63 5.74544L160.9 6.74888ZM162.309 12.5149C162.309 14.7835 161.821 16.676 160.889 18.2335L162.605 19.2608C163.756 17.3382 164.309 15.0759 164.309 12.5149H162.309ZM160.89 18.2309C159.96 19.7752 158.608 20.972 156.796 21.8184L157.642 23.6305C159.784 22.6303 161.451 21.1756 162.603 19.2634L160.89 18.2309ZM156.794 21.8194C154.994 22.6649 152.768 23.1094 150.081 23.1094V25.1094C152.981 25.1094 155.514 24.6305 157.644 23.6295L156.794 21.8194ZM150.081 23.1094H140.475V25.1094H150.081V23.1094ZM141.475 24.1094V17.9304H139.475V24.1094H141.475ZM140.475 18.9304H148.838V16.9304H140.475V18.9304ZM148.838 18.9304C150.389 18.9304 151.749 18.719 152.879 18.2504L152.113 16.403C151.302 16.7393 150.223 16.9304 148.838 16.9304V18.9304ZM152.879 18.2504C154.024 17.7757 154.927 17.038 155.524 16.0226L153.8 15.0086C153.451 15.6031 152.909 16.0728 152.113 16.403L152.879 18.2504ZM155.519 16.032C156.12 15.0341 156.39 13.8436 156.39 12.5149H154.39C154.39 13.5773 154.175 14.3873 153.806 14.9993L155.519 16.032ZM156.39 12.5149C156.39 11.175 156.121 9.97218 155.525 8.95553L153.799 9.96634C154.175 10.6069 154.39 11.44 154.39 12.5149H156.39ZM155.531 8.9648C154.937 7.92597 154.032 7.16248 152.876 6.66141L152.08 8.49626C152.89 8.84746 153.441 9.3387 153.794 9.95708L155.531 8.9648ZM152.89 6.66733C151.75 6.15297 150.373 5.92188 148.803 5.92188V7.92188C150.192 7.92188 151.266 8.12875 152.067 8.49034L152.89 6.66733ZM148.803 5.92188H143.618V7.92188H148.803V5.92188ZM142.618 6.92188V37H144.618V6.92188H142.618ZM143.618 36H135.93V38H143.618V36ZM154.69 20.931L163.728 37.4793L165.483 36.5207L156.445 19.9724L154.69 20.931ZM164.605 36H156.118V38H164.605V36ZM157 36.5287L148.158 19.9804L146.394 20.923L155.236 37.4713L157 36.5287ZM147.276 21.4517H155.568V19.4517H147.276V21.4517Z" fill="#0192EB"/>
</svg>
