<svg width="41" height="40" viewBox="0 0 41 40" fill="none" xmlns="http://www.w3.org/2000/svg">
<path d="M20.0145 9.7445C14.3362 9.7445 9.75613 14.3233 9.75613 20C9.75613 25.6767 14.3362 30.2555 20.0145 30.2555C25.6927 30.2555 30.2728 25.6767 30.2728 20C30.2728 14.3233 25.6927 9.7445 20.0145 9.7445ZM20.0145 26.6674C16.345 26.6674 13.3452 23.6773 13.3452 20C13.3452 16.3227 16.3361 13.3326 20.0145 13.3326C23.6928 13.3326 26.6837 16.3227 26.6837 20C26.6837 23.6773 23.6839 26.6674 20.0145 26.6674ZM33.0851 9.325C33.0851 10.6549 32.0138 11.7171 30.6924 11.7171C29.3621 11.7171 28.2997 10.646 28.2997 9.325C28.2997 8.00402 29.3711 6.93295 30.6924 6.93295C32.0138 6.93295 33.0851 8.00402 33.0851 9.325ZM39.8794 11.7528C39.7276 8.54848 38.9955 5.71014 36.6474 3.37164C34.3083 1.03314 31.4692 0.301238 28.264 0.140578C24.9606 -0.0468593 15.0594 -0.0468593 11.756 0.140578C8.55977 0.292313 5.72065 1.02421 3.37257 3.36271C1.02449 5.70122 0.301322 8.53955 0.140617 11.7438C-0.0468723 15.0463 -0.0468723 24.9448 0.140617 28.2472C0.292394 31.4515 1.02449 34.2899 3.37257 36.6284C5.72065 38.9669 8.55084 39.6988 11.756 39.8594C15.0594 40.0469 24.9606 40.0469 28.264 39.8594C31.4692 39.7077 34.3083 38.9758 36.6474 36.6284C38.9866 34.2899 39.7187 31.4515 39.8794 28.2472C40.0669 24.9448 40.0669 15.0552 39.8794 11.7528ZM35.6118 31.7907C34.9154 33.5401 33.5673 34.8879 31.8084 35.593C29.1747 36.6373 22.925 36.3963 20.0145 36.3963C17.1039 36.3963 10.8454 36.6284 8.22051 35.593C6.47061 34.8968 5.12247 33.549 4.41715 31.7907C3.37257 29.1576 3.61363 22.9097 3.61363 20C3.61363 17.0903 3.3815 10.8334 4.41715 8.2093C5.11354 6.45989 6.46168 5.11213 8.22051 4.40701C10.8543 3.36271 17.1039 3.6037 20.0145 3.6037C22.925 3.6037 29.1836 3.37164 31.8084 4.40701C33.5583 5.1032 34.9065 6.45096 35.6118 8.2093C36.6564 10.8424 36.4153 17.0903 36.4153 20C36.4153 22.9097 36.6564 29.1666 35.6118 31.7907Z" fill="#EAF5FF"/>
</svg>
