<svg width="50" height="40" viewBox="0 0 50 40" fill="none" xmlns="http://www.w3.org/2000/svg">
<path d="M44.1875 9.96871C44.2188 10.4062 44.2188 10.8438 44.2188 11.2812C44.2188 24.6249 34.0626 40 15.5 40C9.78124 40 4.46877 38.3437 0 35.4688C0.81253 35.5625 1.5937 35.5938 2.43749 35.5938C7.15617 35.5938 11.5 34 14.9688 31.2813C10.5312 31.1875 6.81248 28.2813 5.53121 24.2812C6.15626 24.3749 6.78122 24.4375 7.43753 24.4375C8.34375 24.4375 9.25007 24.3124 10.0938 24.0938C5.46878 23.1562 1.99992 19.0937 1.99992 14.1875V14.0625C3.34362 14.8125 4.90625 15.2813 6.56238 15.3437C3.84362 13.5312 2.06244 10.4375 2.06244 6.93743C2.06244 5.06246 2.56235 3.34371 3.4374 1.8437C8.40618 7.9687 15.875 11.9686 24.2499 12.4062C24.0937 11.6562 23.9999 10.875 23.9999 10.0938C23.9999 4.5312 28.4999 0 34.0936 0C36.9999 0 39.6249 1.21875 41.4687 3.1875C43.7498 2.75002 45.9373 1.90623 47.8749 0.750005C47.1248 3.09381 45.5311 5.06256 43.4374 6.31247C45.4687 6.09383 47.4374 5.53121 49.2499 4.75003C47.8751 6.74995 46.1563 8.53113 44.1875 9.96871Z" fill="#EAF5FF"/>
</svg>
